<mxfile host="app.diagrams.net" agent="Mozilla/5.0 (Windows NT 10.0; Win64; x64) AppleWebKit/537.36 (KHTML, like Gecko) Chrome/128.0.0.0 Safari/537.36" version="24.7.14">
  <diagram name="Página-1" id="O4JuxfC9sbgDATAFlTKz">
    <mxGraphModel dx="2062" dy="782" grid="1" gridSize="10" guides="1" tooltips="1" connect="1" arrows="1" fold="1" page="1" pageScale="1" pageWidth="827" pageHeight="1169" background="none" math="0" shadow="0">
      <root>
        <mxCell id="0" />
        <mxCell id="1" parent="0" />
        <mxCell id="B8CRLaBuqpFktyLGkcQA-2" value="Usuario" style="whiteSpace=wrap;html=1;align=center;" vertex="1" parent="1">
          <mxGeometry x="-60" y="250" width="100" height="40" as="geometry" />
        </mxCell>
        <mxCell id="B8CRLaBuqpFktyLGkcQA-3" value="Categoria" style="whiteSpace=wrap;html=1;align=center;" vertex="1" parent="1">
          <mxGeometry x="270" y="110" width="100" height="40" as="geometry" />
        </mxCell>
        <mxCell id="B8CRLaBuqpFktyLGkcQA-4" value="Actividad" style="whiteSpace=wrap;html=1;align=center;" vertex="1" parent="1">
          <mxGeometry x="464" y="200" width="100" height="40" as="geometry" />
        </mxCell>
        <mxCell id="B8CRLaBuqpFktyLGkcQA-5" value="Clase" style="whiteSpace=wrap;html=1;align=center;" vertex="1" parent="1">
          <mxGeometry x="410" y="320" width="100" height="40" as="geometry" />
        </mxCell>
        <mxCell id="B8CRLaBuqpFktyLGkcQA-7" value="Reserva" style="whiteSpace=wrap;html=1;align=center;" vertex="1" parent="1">
          <mxGeometry x="150" y="430" width="100" height="40" as="geometry" />
        </mxCell>
        <mxCell id="B8CRLaBuqpFktyLGkcQA-8" value="IdUsuario" style="ellipse;whiteSpace=wrap;html=1;align=center;fontStyle=4;" vertex="1" parent="1">
          <mxGeometry y="140" width="100" height="30" as="geometry" />
        </mxCell>
        <mxCell id="B8CRLaBuqpFktyLGkcQA-24" style="edgeStyle=orthogonalEdgeStyle;rounded=0;orthogonalLoop=1;jettySize=auto;html=1;entryX=0;entryY=0;entryDx=0;entryDy=0;" edge="1" parent="1" source="B8CRLaBuqpFktyLGkcQA-15" target="B8CRLaBuqpFktyLGkcQA-2">
          <mxGeometry relative="1" as="geometry" />
        </mxCell>
        <mxCell id="B8CRLaBuqpFktyLGkcQA-15" value="Apellido" style="ellipse;whiteSpace=wrap;html=1;align=center;" vertex="1" parent="1">
          <mxGeometry x="-110" y="135" width="100" height="40" as="geometry" />
        </mxCell>
        <mxCell id="B8CRLaBuqpFktyLGkcQA-23" style="edgeStyle=orthogonalEdgeStyle;rounded=0;orthogonalLoop=1;jettySize=auto;html=1;entryX=0;entryY=0.5;entryDx=0;entryDy=0;" edge="1" parent="1" source="B8CRLaBuqpFktyLGkcQA-16" target="B8CRLaBuqpFktyLGkcQA-2">
          <mxGeometry relative="1" as="geometry" />
        </mxCell>
        <mxCell id="B8CRLaBuqpFktyLGkcQA-16" value="Nombre" style="ellipse;whiteSpace=wrap;html=1;align=center;" vertex="1" parent="1">
          <mxGeometry x="-200" y="170" width="100" height="40" as="geometry" />
        </mxCell>
        <mxCell id="B8CRLaBuqpFktyLGkcQA-25" style="edgeStyle=orthogonalEdgeStyle;rounded=0;orthogonalLoop=1;jettySize=auto;html=1;entryX=0.588;entryY=-0.078;entryDx=0;entryDy=0;entryPerimeter=0;" edge="1" parent="1" source="B8CRLaBuqpFktyLGkcQA-8" target="B8CRLaBuqpFktyLGkcQA-2">
          <mxGeometry relative="1" as="geometry" />
        </mxCell>
        <mxCell id="B8CRLaBuqpFktyLGkcQA-29" style="edgeStyle=orthogonalEdgeStyle;rounded=0;orthogonalLoop=1;jettySize=auto;html=1;entryX=0;entryY=0.75;entryDx=0;entryDy=0;" edge="1" parent="1" source="B8CRLaBuqpFktyLGkcQA-26" target="B8CRLaBuqpFktyLGkcQA-2">
          <mxGeometry relative="1" as="geometry" />
        </mxCell>
        <mxCell id="B8CRLaBuqpFktyLGkcQA-26" value="Email" style="ellipse;whiteSpace=wrap;html=1;align=center;" vertex="1" parent="1">
          <mxGeometry x="-220" y="220" width="100" height="40" as="geometry" />
        </mxCell>
        <mxCell id="B8CRLaBuqpFktyLGkcQA-30" style="edgeStyle=orthogonalEdgeStyle;rounded=0;orthogonalLoop=1;jettySize=auto;html=1;" edge="1" parent="1" source="B8CRLaBuqpFktyLGkcQA-27" target="B8CRLaBuqpFktyLGkcQA-2">
          <mxGeometry relative="1" as="geometry">
            <Array as="points">
              <mxPoint x="-60" y="300" />
            </Array>
          </mxGeometry>
        </mxCell>
        <mxCell id="B8CRLaBuqpFktyLGkcQA-27" value="Teléfono" style="ellipse;whiteSpace=wrap;html=1;align=center;" vertex="1" parent="1">
          <mxGeometry x="-230" y="280" width="100" height="40" as="geometry" />
        </mxCell>
        <mxCell id="B8CRLaBuqpFktyLGkcQA-28" value="Rol" style="ellipse;whiteSpace=wrap;html=1;align=center;" vertex="1" parent="1">
          <mxGeometry x="-220" y="340" width="100" height="40" as="geometry" />
        </mxCell>
        <mxCell id="B8CRLaBuqpFktyLGkcQA-31" style="edgeStyle=orthogonalEdgeStyle;rounded=0;orthogonalLoop=1;jettySize=auto;html=1;entryX=0.139;entryY=1.057;entryDx=0;entryDy=0;entryPerimeter=0;" edge="1" parent="1" source="B8CRLaBuqpFktyLGkcQA-28" target="B8CRLaBuqpFktyLGkcQA-2">
          <mxGeometry relative="1" as="geometry" />
        </mxCell>
        <mxCell id="B8CRLaBuqpFktyLGkcQA-33" style="edgeStyle=orthogonalEdgeStyle;rounded=0;orthogonalLoop=1;jettySize=auto;html=1;entryX=0.25;entryY=1;entryDx=0;entryDy=0;" edge="1" parent="1" source="B8CRLaBuqpFktyLGkcQA-32" target="B8CRLaBuqpFktyLGkcQA-2">
          <mxGeometry relative="1" as="geometry" />
        </mxCell>
        <mxCell id="B8CRLaBuqpFktyLGkcQA-32" value="Contraseña" style="ellipse;whiteSpace=wrap;html=1;align=center;" vertex="1" parent="1">
          <mxGeometry x="-70" y="380" width="100" height="40" as="geometry" />
        </mxCell>
        <mxCell id="B8CRLaBuqpFktyLGkcQA-45" value="&lt;u&gt;IdCategoria&lt;/u&gt;" style="ellipse;whiteSpace=wrap;html=1;align=center;" vertex="1" parent="1">
          <mxGeometry x="180" y="30" width="100" height="40" as="geometry" />
        </mxCell>
        <mxCell id="B8CRLaBuqpFktyLGkcQA-47" style="edgeStyle=orthogonalEdgeStyle;rounded=0;orthogonalLoop=1;jettySize=auto;html=1;entryX=1;entryY=0.5;entryDx=0;entryDy=0;" edge="1" parent="1" source="B8CRLaBuqpFktyLGkcQA-46" target="B8CRLaBuqpFktyLGkcQA-3">
          <mxGeometry relative="1" as="geometry" />
        </mxCell>
        <mxCell id="B8CRLaBuqpFktyLGkcQA-46" value="Denominacion" style="ellipse;whiteSpace=wrap;html=1;align=center;" vertex="1" parent="1">
          <mxGeometry x="364" y="30" width="100" height="40" as="geometry" />
        </mxCell>
        <mxCell id="B8CRLaBuqpFktyLGkcQA-48" style="edgeStyle=orthogonalEdgeStyle;rounded=0;orthogonalLoop=1;jettySize=auto;html=1;entryX=0.846;entryY=-0.035;entryDx=0;entryDy=0;entryPerimeter=0;" edge="1" parent="1" source="B8CRLaBuqpFktyLGkcQA-45" target="B8CRLaBuqpFktyLGkcQA-3">
          <mxGeometry relative="1" as="geometry" />
        </mxCell>
        <mxCell id="B8CRLaBuqpFktyLGkcQA-52" style="edgeStyle=orthogonalEdgeStyle;rounded=0;orthogonalLoop=1;jettySize=auto;html=1;entryX=1;entryY=0.75;entryDx=0;entryDy=0;" edge="1" parent="1" source="B8CRLaBuqpFktyLGkcQA-51" target="B8CRLaBuqpFktyLGkcQA-4">
          <mxGeometry relative="1" as="geometry" />
        </mxCell>
        <mxCell id="B8CRLaBuqpFktyLGkcQA-51" value="Denominacion" style="ellipse;whiteSpace=wrap;html=1;align=center;" vertex="1" parent="1">
          <mxGeometry x="640" y="140" width="100" height="40" as="geometry" />
        </mxCell>
        <mxCell id="B8CRLaBuqpFktyLGkcQA-53" value="Descripción" style="ellipse;whiteSpace=wrap;html=1;align=center;" vertex="1" parent="1">
          <mxGeometry x="630" y="230" width="100" height="40" as="geometry" />
        </mxCell>
        <mxCell id="B8CRLaBuqpFktyLGkcQA-54" style="edgeStyle=orthogonalEdgeStyle;rounded=0;orthogonalLoop=1;jettySize=auto;html=1;entryX=0.698;entryY=0.935;entryDx=0;entryDy=0;entryPerimeter=0;" edge="1" parent="1" source="B8CRLaBuqpFktyLGkcQA-53" target="B8CRLaBuqpFktyLGkcQA-4">
          <mxGeometry relative="1" as="geometry" />
        </mxCell>
        <mxCell id="B8CRLaBuqpFktyLGkcQA-55" value="IdActividad" style="ellipse;whiteSpace=wrap;html=1;align=center;fontStyle=4;" vertex="1" parent="1">
          <mxGeometry x="520" y="95" width="100" height="40" as="geometry" />
        </mxCell>
        <mxCell id="B8CRLaBuqpFktyLGkcQA-56" style="edgeStyle=orthogonalEdgeStyle;rounded=0;orthogonalLoop=1;jettySize=auto;html=1;entryX=0.817;entryY=-0.004;entryDx=0;entryDy=0;entryPerimeter=0;" edge="1" parent="1" source="B8CRLaBuqpFktyLGkcQA-55" target="B8CRLaBuqpFktyLGkcQA-4">
          <mxGeometry relative="1" as="geometry" />
        </mxCell>
        <mxCell id="B8CRLaBuqpFktyLGkcQA-58" style="edgeStyle=orthogonalEdgeStyle;rounded=0;orthogonalLoop=1;jettySize=auto;html=1;entryX=1;entryY=0.25;entryDx=0;entryDy=0;" edge="1" parent="1" source="B8CRLaBuqpFktyLGkcQA-57" target="B8CRLaBuqpFktyLGkcQA-5">
          <mxGeometry relative="1" as="geometry" />
        </mxCell>
        <mxCell id="B8CRLaBuqpFktyLGkcQA-57" value="IdClase" style="ellipse;whiteSpace=wrap;html=1;align=center;fontStyle=4;" vertex="1" parent="1">
          <mxGeometry x="580" y="310" width="100" height="40" as="geometry" />
        </mxCell>
        <mxCell id="B8CRLaBuqpFktyLGkcQA-60" style="edgeStyle=orthogonalEdgeStyle;rounded=0;orthogonalLoop=1;jettySize=auto;html=1;entryX=0.75;entryY=1;entryDx=0;entryDy=0;" edge="1" parent="1" source="B8CRLaBuqpFktyLGkcQA-59" target="B8CRLaBuqpFktyLGkcQA-5">
          <mxGeometry relative="1" as="geometry" />
        </mxCell>
        <mxCell id="B8CRLaBuqpFktyLGkcQA-59" value="IdActividad" style="ellipse;whiteSpace=wrap;html=1;align=center;" vertex="1" parent="1">
          <mxGeometry x="590" y="360" width="100" height="40" as="geometry" />
        </mxCell>
        <mxCell id="B8CRLaBuqpFktyLGkcQA-63" style="edgeStyle=orthogonalEdgeStyle;rounded=0;orthogonalLoop=1;jettySize=auto;html=1;entryX=0.5;entryY=1;entryDx=0;entryDy=0;" edge="1" parent="1" source="B8CRLaBuqpFktyLGkcQA-61" target="B8CRLaBuqpFktyLGkcQA-5">
          <mxGeometry relative="1" as="geometry" />
        </mxCell>
        <mxCell id="B8CRLaBuqpFktyLGkcQA-61" value="Dia" style="ellipse;whiteSpace=wrap;html=1;align=center;" vertex="1" parent="1">
          <mxGeometry x="540" y="410" width="100" height="40" as="geometry" />
        </mxCell>
        <mxCell id="B8CRLaBuqpFktyLGkcQA-62" value="Horario" style="ellipse;whiteSpace=wrap;html=1;align=center;" vertex="1" parent="1">
          <mxGeometry x="450" y="450" width="100" height="40" as="geometry" />
        </mxCell>
        <mxCell id="B8CRLaBuqpFktyLGkcQA-64" style="edgeStyle=orthogonalEdgeStyle;rounded=0;orthogonalLoop=1;jettySize=auto;html=1;entryX=0.077;entryY=1.03;entryDx=0;entryDy=0;entryPerimeter=0;exitX=0.5;exitY=0;exitDx=0;exitDy=0;" edge="1" parent="1" source="B8CRLaBuqpFktyLGkcQA-62">
          <mxGeometry relative="1" as="geometry">
            <mxPoint x="496.35" y="460" as="sourcePoint" />
            <mxPoint x="414.04999999999984" y="361.1999999999998" as="targetPoint" />
            <Array as="points">
              <mxPoint x="414" y="450" />
            </Array>
          </mxGeometry>
        </mxCell>
        <mxCell id="B8CRLaBuqpFktyLGkcQA-66" style="edgeStyle=orthogonalEdgeStyle;rounded=0;orthogonalLoop=1;jettySize=auto;html=1;entryX=0;entryY=0.5;entryDx=0;entryDy=0;" edge="1" parent="1" source="B8CRLaBuqpFktyLGkcQA-65" target="B8CRLaBuqpFktyLGkcQA-5">
          <mxGeometry relative="1" as="geometry" />
        </mxCell>
        <mxCell id="B8CRLaBuqpFktyLGkcQA-65" value="Cupo" style="ellipse;whiteSpace=wrap;html=1;align=center;" vertex="1" parent="1">
          <mxGeometry x="330" y="460" width="100" height="40" as="geometry" />
        </mxCell>
        <mxCell id="B8CRLaBuqpFktyLGkcQA-68" style="edgeStyle=orthogonalEdgeStyle;rounded=0;orthogonalLoop=1;jettySize=auto;html=1;" edge="1" parent="1" source="B8CRLaBuqpFktyLGkcQA-67" target="B8CRLaBuqpFktyLGkcQA-7">
          <mxGeometry relative="1" as="geometry" />
        </mxCell>
        <mxCell id="B8CRLaBuqpFktyLGkcQA-67" value="IdReserva" style="ellipse;whiteSpace=wrap;html=1;align=center;fontStyle=4;" vertex="1" parent="1">
          <mxGeometry x="30" y="470" width="100" height="40" as="geometry" />
        </mxCell>
        <mxCell id="B8CRLaBuqpFktyLGkcQA-69" value="IdClase" style="ellipse;whiteSpace=wrap;html=1;align=center;" vertex="1" parent="1">
          <mxGeometry x="60" y="530" width="100" height="40" as="geometry" />
        </mxCell>
        <mxCell id="B8CRLaBuqpFktyLGkcQA-70" value="IdUsuario" style="ellipse;whiteSpace=wrap;html=1;align=center;" vertex="1" parent="1">
          <mxGeometry x="170" y="565" width="100" height="40" as="geometry" />
        </mxCell>
        <mxCell id="B8CRLaBuqpFktyLGkcQA-71" style="edgeStyle=orthogonalEdgeStyle;rounded=0;orthogonalLoop=1;jettySize=auto;html=1;entryX=0.158;entryY=1.02;entryDx=0;entryDy=0;entryPerimeter=0;" edge="1" parent="1" source="B8CRLaBuqpFktyLGkcQA-69" target="B8CRLaBuqpFktyLGkcQA-7">
          <mxGeometry relative="1" as="geometry" />
        </mxCell>
        <mxCell id="B8CRLaBuqpFktyLGkcQA-72" style="edgeStyle=orthogonalEdgeStyle;rounded=0;orthogonalLoop=1;jettySize=auto;html=1;entryX=0.325;entryY=1.037;entryDx=0;entryDy=0;entryPerimeter=0;" edge="1" parent="1" source="B8CRLaBuqpFktyLGkcQA-70" target="B8CRLaBuqpFktyLGkcQA-7">
          <mxGeometry relative="1" as="geometry" />
        </mxCell>
        <mxCell id="B8CRLaBuqpFktyLGkcQA-73" value="Estado" style="ellipse;whiteSpace=wrap;html=1;align=center;" vertex="1" parent="1">
          <mxGeometry x="280" y="525" width="100" height="40" as="geometry" />
        </mxCell>
        <mxCell id="B8CRLaBuqpFktyLGkcQA-74" style="edgeStyle=orthogonalEdgeStyle;rounded=0;orthogonalLoop=1;jettySize=auto;html=1;entryX=0.861;entryY=1.037;entryDx=0;entryDy=0;entryPerimeter=0;" edge="1" parent="1" source="B8CRLaBuqpFktyLGkcQA-73" target="B8CRLaBuqpFktyLGkcQA-7">
          <mxGeometry relative="1" as="geometry" />
        </mxCell>
        <mxCell id="B8CRLaBuqpFktyLGkcQA-75" value="" style="edgeStyle=entityRelationEdgeStyle;fontSize=12;html=1;endArrow=ERzeroToMany;endFill=1;rounded=0;entryX=0;entryY=0.25;entryDx=0;entryDy=0;" edge="1" parent="1" source="B8CRLaBuqpFktyLGkcQA-2" target="B8CRLaBuqpFktyLGkcQA-7">
          <mxGeometry width="100" height="100" relative="1" as="geometry">
            <mxPoint x="45" y="260" as="sourcePoint" />
            <mxPoint x="180.00000000000023" y="419.9999999999999" as="targetPoint" />
            <Array as="points">
              <mxPoint x="165" y="390" />
              <mxPoint x="145" y="310" />
              <mxPoint x="155" y="400" />
            </Array>
          </mxGeometry>
        </mxCell>
        <mxCell id="B8CRLaBuqpFktyLGkcQA-83" value="Crea" style="edgeLabel;html=1;align=center;verticalAlign=middle;resizable=0;points=[];" vertex="1" connectable="0" parent="B8CRLaBuqpFktyLGkcQA-75">
          <mxGeometry x="-0.0708" y="3" relative="1" as="geometry">
            <mxPoint as="offset" />
          </mxGeometry>
        </mxCell>
        <mxCell id="B8CRLaBuqpFktyLGkcQA-79" value="" style="edgeStyle=entityRelationEdgeStyle;fontSize=12;html=1;endArrow=ERoneToMany;rounded=0;exitX=0;exitY=0.25;exitDx=0;exitDy=0;" edge="1" parent="1" source="B8CRLaBuqpFktyLGkcQA-5" target="B8CRLaBuqpFktyLGkcQA-7">
          <mxGeometry width="100" height="100" relative="1" as="geometry">
            <mxPoint x="440" y="360" as="sourcePoint" />
            <mxPoint x="430" y="270" as="targetPoint" />
            <Array as="points">
              <mxPoint x="500" y="380" />
              <mxPoint x="380" y="390" />
              <mxPoint x="490" y="390" />
            </Array>
          </mxGeometry>
        </mxCell>
        <mxCell id="B8CRLaBuqpFktyLGkcQA-80" value="" style="fontSize=12;html=1;endArrow=ERoneToMany;rounded=0;exitX=0;exitY=1;exitDx=0;exitDy=0;" edge="1" parent="1" source="B8CRLaBuqpFktyLGkcQA-4" target="B8CRLaBuqpFktyLGkcQA-5">
          <mxGeometry width="100" height="100" relative="1" as="geometry">
            <mxPoint x="410" y="350" as="sourcePoint" />
            <mxPoint x="510" y="250" as="targetPoint" />
          </mxGeometry>
        </mxCell>
        <mxCell id="B8CRLaBuqpFktyLGkcQA-85" value="Tiene" style="edgeLabel;html=1;align=center;verticalAlign=middle;resizable=0;points=[];" vertex="1" connectable="0" parent="B8CRLaBuqpFktyLGkcQA-80">
          <mxGeometry x="-0.2995" relative="1" as="geometry">
            <mxPoint as="offset" />
          </mxGeometry>
        </mxCell>
        <mxCell id="B8CRLaBuqpFktyLGkcQA-81" value="" style="fontSize=12;html=1;endArrow=ERmany;startArrow=ERmany;rounded=0;entryX=0.366;entryY=0.974;entryDx=0;entryDy=0;entryPerimeter=0;exitX=0.17;exitY=-0.004;exitDx=0;exitDy=0;exitPerimeter=0;" edge="1" parent="1" source="B8CRLaBuqpFktyLGkcQA-4" target="B8CRLaBuqpFktyLGkcQA-3">
          <mxGeometry width="100" height="100" relative="1" as="geometry">
            <mxPoint x="480" y="280" as="sourcePoint" />
            <mxPoint x="580" y="180" as="targetPoint" />
          </mxGeometry>
        </mxCell>
      </root>
    </mxGraphModel>
  </diagram>
</mxfile>
